<?xml version="1.0" encoding="utf-8"?>
<!-- Generator: Adobe Illustrator 27.4.0, SVG Export Plug-In . SVG Version: 6.00 Build 0)  -->
<svg version="1.1" id="Layer_1" xmlns="http://www.w3.org/2000/svg" xmlns:xlink="http://www.w3.org/1999/xlink" x="0px" y="0px"
	 viewBox="0 0 744.8 747.1" style="enable-background:new 0 0 744.8 747.1;" xml:space="preserve">
<style type="text/css">
	.st0{fill:#2F2E41;}
	.st1{fill:#06B376;}
	.st2{fill:#6EE5B7;}
	.st3{fill:#0F9CDC;}
	.st4{fill:#FFFFFF;}
	.st5{fill:#CCCCCC;}
	.st6{fill:#FFB8B8;}
</style>
<ellipse class="st0" cx="372.4" cy="736.4" rx="360.9" ry="2.9"/>
<g>
	<path id="fa3b9e12-7275-481e-bee9-64fd9595a50d-856" class="st1" d="M97.3,629.2L91.1,605c-10.9-4.6-22-8.6-33.3-12L57,604.2
		l-3.1-12.4c-14-4-23.6-5.8-23.6-5.8s12.9,49.1,40,86.6l31.5,5.5l-24.5,3.5c3.4,4.1,7.1,8,11,11.6c39.4,36.5,83.2,53.3,97.9,37.4
		s-5.3-58.3-44.6-94.9c-12.2-11.3-27.5-20.4-42.9-27.6L97.3,629.2z"/>
	<path id="bde08021-c30f-4979-a9d8-cb90b72b5ca2-857" class="st2" d="M155.6,602.9l7.3-23.9c-6.9-9.6-14.4-18.7-22.3-27.5l-6.5,9.2
		l3.7-12.2c-9.9-10.7-17.2-17.1-17.2-17.1s-14.3,48.7-10.5,94.8l24.1,21l-22.8-9.6c0.8,5.3,1.9,10.5,3.4,15.6
		c14.8,51.6,43.7,88.6,64.5,82.7s25.7-52.7,10.8-104.3c-4.6-16-13-31.7-22.5-45.8L155.6,602.9z"/>
</g>
<g>
	<path id="b3ac2088-de9b-4f7f-bc99-0ed9705c1a9d-858" class="st3" d="M517,181.1h-4V71.4c0-35.1-28.6-63.5-63.9-63.5H215
		c-35.3,0-63.9,28.4-63.9,63.5v601.9c0,35.1,28.6,63.5,63.9,63.5h234c35.3,0,63.9-28.4,63.9-63.5V259.2h4L517,181.1z"/>
	<path id="b2715b96-3117-487c-acc0-20904544b5b7-859" class="st4" d="M451.7,24.4h-30.5c4.7,11.5-0.8,24.7-12.4,29.4
		c-2.7,1.1-5.6,1.7-8.6,1.7H266c-12.5,0-22.7-10.1-22.7-22.5c0-2.9,0.6-5.8,1.7-8.5h-28.5c-26.4,0-47.7,21.2-47.7,47.4l0,0v601
		c0,26.2,21.4,47.4,47.7,47.4h235.2c26.4,0,47.7-21.2,47.7-47.4l0,0v-601C499.4,45.7,478,24.4,451.7,24.4z"/>
	<path id="b06d66ec-6c84-45dd-8c27-1263a6253192-860" class="st5" d="M304.1,263.9c0-8.6,4.6-16.5,12.1-20.7
		c-11.5-6.6-26.3-2.7-32.9,8.8c-6.7,11.4-2.7,26.1,8.8,32.7c7.5,4.3,16.6,4.3,24.1,0C308.7,280.3,304.1,272.4,304.1,263.9z"/>
	<path id="e73810fe-4cf4-40cc-8c7c-ca544ce30bd4-861" class="st5" d="M334.4,263.9c0-8.6,4.6-16.5,12.1-20.7
		c-11.5-6.6-26.3-2.7-32.9,8.8c-6.7,11.4-2.7,26.1,8.8,32.7c7.5,4.3,16.6,4.3,24.1,0C339,280.3,334.4,272.4,334.4,263.9z"/>
	<ellipse id="a4813fcf-056e-4514-bb8b-e6506f49341f" class="st3" cx="364" cy="263.9" rx="24.1" ry="23.9"/>
	<path id="bbe451c3-febc-41ba-8083-4c8307a2e73e-862" class="st5" d="M404.3,338.6H263.8c-2.8,0-5-2.2-5-5V194.1c0-2.8,2.3-5,5-5
		h140.4c2.8,0,5,2.2,5,5v139.5C409.3,336.4,407,338.6,404.3,338.6z M263.8,191.1c-1.7,0-3,1.3-3,3v139.5c0,1.7,1.4,3,3,3h140.4
		c1.7,0,3-1.3,3-3V194.1c0-1.7-1.4-3-3-3H263.8z"/>
	<rect id="bb28937d-932f-4fdf-befe-f406e51091fe" x="220.2" y="445.5" class="st5" width="215.4" height="2"/>
	<ellipse id="fcef55fc-4968-45b2-93bb-1a1080c85fc7" class="st3" cx="227" cy="426.2" rx="6.8" ry="6.8"/>
	<rect id="ff33d889-4c74-4b91-85ef-b4882cc8fe76" x="220.2" y="513.1" class="st5" width="215.4" height="2"/>
	<ellipse id="e8fa0310-b872-4adf-aedd-0c6eda09f3b8" class="st3" cx="227" cy="493.8" rx="6.8" ry="6.8"/>
	<path class="st3" d="M431.7,590h-68.1c-2.4,0-4.4-2-4.4-4.4v-23.7c0-2.4,2-4.4,4.4-4.4h68.1c2.4,0,4.4,2,4.4,4.4v23.7
		C436.1,588,434.1,590,431.7,590z"/>
	<ellipse id="e12ee00d-aa4a-4413-a013-11d20b7f97f7" class="st3" cx="249.2" cy="426.2" rx="6.8" ry="6.8"/>
	<ellipse id="f58f497e-6949-45c8-be5f-eee2aa0f6586" class="st3" cx="271.4" cy="426.2" rx="6.8" ry="6.8"/>
	<ellipse id="b4d4939a-c6e6-4f4d-ba6c-e8b05485017d" class="st3" cx="249.2" cy="493.8" rx="6.8" ry="6.8"/>
	<ellipse id="aff120b1-519b-4e96-ac87-836aa55663de" class="st3" cx="271.4" cy="493.8" rx="6.8" ry="6.8"/>
</g>
<g>
	<path class="st6" d="M567.7,494.3c0.5,0.2,0.9,0.5,1.3,0.7l42.3-18.1l1.5-11.2l16.9-0.1l-1,25.6L573,506c-0.1,0.4-0.3,0.8-0.4,1.1
		c-2.3,4.8-8,6.9-12.8,4.6s-6.9-8-4.6-12.8C557.3,494.2,562.9,492.1,567.7,494.3z"/>
	<polygon class="st6" points="636,726 624.4,726 618.9,681.4 636,681.4 	"/>
	<path class="st0" d="M616.2,722.7h22.3l0,0v14.1l0,0h-36.4l0,0l0,0C602.1,729,608.4,722.7,616.2,722.7z"/>
	<polygon class="st6" points="681,722.8 669.5,723.9 659.6,680 676.6,678.4 	"/>
	<path class="st0" d="M660.9,721.4l22.2-2.2l0,0l1.4,14l0,0l-36.2,3.6l0,0l0,0C647.6,729.1,653.2,722.2,660.9,721.4z"/>
	<circle class="st6" cx="639.2" cy="395.3" r="23.2"/>
	<path class="st0" d="M621.8,717c-2.1,0-3.8-1.5-4.2-3.5c-6-33.2-25.6-142-26-145c0-0.1,0-0.1,0-0.2v-8.1c0-0.3,0.1-0.6,0.3-0.8
		l2.6-3.6c0.2-0.4,0.6-0.6,1.1-0.6c14.7-0.7,63-2.7,65.4,0.2l0,0c2.3,2.9,1.5,11.8,1.3,13.6v0.2L684,707.9c0.4,2.3-1.2,4.5-3.5,4.8
		l-13.6,2.2c-2.1,0.3-4.1-0.9-4.7-2.9c-4.2-13.4-18.2-58.4-23.1-75.9c-0.1-0.3-0.3-0.4-0.6-0.3c-0.2,0.1-0.3,0.2-0.3,0.5
		c0.2,16.6,0.8,59,1,73.7v1.6c0,2.2-1.7,4.1-3.9,4.3l-13.1,1.2C622.1,717,622,717,621.8,717z"/>
	<path id="ae7af94f-88d7-4204-9f07-e3651de85c05-864" class="st3" d="M624.5,427.6c-4,2.4-6.5,6.8-7.9,11.3
		c-2.6,8.3-4.1,16.9-4.6,25.6l-1.5,26.1l-18.2,69.1c15.8,13.3,24.8,10.3,46-0.6c21.2-10.9,23.6,3.6,23.6,3.6l4.2-58.8l6.1-64.2
		c-1.4-1.6-2.9-3.1-4.6-4.4c-11.3-8.8-26.1-12-40.1-8.5L624.5,427.6z"/>
	<path class="st6" d="M618.6,508.2c0.5,0.2,1,0.4,1.4,0.7l41.9-21l0.7-11.4l17.3-1.2l0.9,25.9l-55.9,18.5c-1.2,5.3-6.6,8.6-11.9,7.4
		c-5.3-1.2-8.6-6.6-7.4-11.9c1.2-5.3,6.6-8.6,11.9-7.4C617.8,508,618.2,508.1,618.6,508.2L618.6,508.2z"/>
	<path id="a6768b0e-63d0-4b31-8462-9b2e0b00f0fd-865" class="st3" d="M672.1,440c10.3,3.6,12.1,43,12.1,43
		c-12.1-6.7-26.7,4.2-26.7,4.2s-3-10.3-6.7-23.6c-2.2-7.6-0.4-15.9,4.8-21.8C655.7,441.8,661.8,436.3,672.1,440z"/>
	<path id="bfd7963f-0cf8-4885-9d3a-2c00bccda2e3-866" class="st0" d="M660,401.4c-2.9-2.3-6.8,1.9-6.8,1.9l-2.3-20.8
		c0,0-14.4,1.7-23.7-0.6s-10.7,8.4-10.7,8.4c-0.5-4.3-0.6-8.7-0.3-13c0.6-5.2,8.1-10.4,21.4-13.9c13.3-3.5,20.2,11.6,20.2,11.6
		C667,379.6,662.9,403.7,660,401.4z"/>
</g>
</svg>
